<?xml version="1.0" encoding="UTF-8" standalone="no"?>
<svg
   xmlns:dc="http://purl.org/dc/elements/1.1/"
   xmlns:cc="http://creativecommons.org/ns#"
   xmlns:rdf="http://www.w3.org/1999/02/22-rdf-syntax-ns#"
   xmlns:svg="http://www.w3.org/2000/svg"
   xmlns="http://www.w3.org/2000/svg"
   viewBox="0 0 2314.3733 1122.52"
   height="1122.52"
   width="2314.3733"
   xml:space="preserve"
   id="svg2"
   version="1.1"><metadata
     id="metadata8"><rdf:RDF><cc:Work
         rdf:about=""><dc:format>image/svg+xml</dc:format><dc:type
           rdf:resource="http://purl.org/dc/dcmitype/StillImage" /></cc:Work></rdf:RDF></metadata><defs
     id="defs6"><clipPath
       id="clipPath18"
       clipPathUnits="userSpaceOnUse"><path
         id="path16"
         d="M 0,841.89 H 1735.784 V 0 H 0 Z" /></clipPath></defs><g
     transform="matrix(1.3333333,0,0,-1.3333333,0,1122.52)"
     id="g10"><g
       id="g12"><g
         clip-path="url(#clipPath18)"
         id="g14"><g
           transform="translate(124.2761,467.562)"
           id="g20"><path
             id="path22"
             style="fill:#2b2b2a;fill-opacity:1;fill-rule:nonzero;stroke:none"
             d="m 0,0 c -4.943,36.017 -20.48,57.91 -53.672,57.91 -38.49,0 -56.145,-28.956 -56.145,-95.34 0,-66.385 17.655,-95.341 56.145,-95.341 33.192,0 50.141,25.425 54.378,61.442 h -24.717 c -4.237,-31.78 -13.419,-40.255 -29.661,-40.255 -21.541,0 -30.721,13.418 -30.721,74.154 0,60.735 9.18,74.153 30.721,74.153 15.536,0 26.483,-9.18 28.954,-36.723 z" /></g><g
           transform="translate(151.799,430.1316)"
           id="g24"><path
             id="path26"
             style="fill:#2b2b2a;fill-opacity:1;fill-rule:evenodd;stroke:none"
             d="m 0,0 c 0,-66.384 17.655,-95.34 56.144,-95.34 38.49,0 56.146,28.956 56.146,95.34 0,66.384 -17.656,95.34 -56.146,95.34 C 17.655,95.34 0,66.384 0,0 m 25.424,0 c 0,60.736 9.18,74.153 30.72,74.153 21.54,0 30.721,-13.417 30.721,-74.153 0,-60.736 -9.181,-74.153 -30.721,-74.153 -21.54,0 -30.72,13.417 -30.72,74.153" /></g><g
           transform="translate(302.2039,338.3231)"
           id="g28"><path
             id="path30"
             style="fill:#2b2b2a;fill-opacity:1;fill-rule:nonzero;stroke:none"
             d="m 0,0 h 25.423 v 143.362 c 11.299,14.125 22.599,22.6 34.958,22.6 13.772,0 20.128,-9.18 20.128,-30.367 V 0 h 25.424 v 139.125 c 0,33.898 -14.831,48.024 -40.255,48.024 -12.007,0 -29.661,-11.299 -41.668,-23.658 v 20.126 H 0 Z" /></g><g
           transform="translate(551.4908,481.6852)"
           id="g32"><path
             id="path34"
             style="fill:#2b2b2a;fill-opacity:1;fill-rule:nonzero;stroke:none"
             d="m 0,0 c -6.003,27.543 -22.952,43.787 -51.202,43.787 -27.895,0 -47.67,-20.482 -47.67,-44.492 0,-54.028 77.685,-54.733 77.685,-97.107 0,-15.183 -12.712,-27.895 -26.483,-27.895 -18.715,0 -28.249,16.244 -33.546,32.485 l -23.304,-4.942 c 8.827,-30.722 25.423,-48.73 58.616,-48.73 28.955,0 50.142,21.892 50.142,50.848 0,57.204 -77.685,59.323 -77.685,96.753 0,12.358 8.474,21.893 20.48,21.893 20.481,0 27.189,-13.065 31.78,-28.956 z" /></g><g
           transform="translate(702.2484,521.9399)"
           id="g36"><path
             id="path38"
             style="fill:#2b2b2a;fill-opacity:1;fill-rule:nonzero;stroke:none"
             d="m 0,0 h -25.424 v -143.362 c -11.299,-14.125 -22.599,-22.6 -34.958,-22.6 -13.771,0 -20.127,9.18 -20.127,30.367 V 0 h -25.425 v -139.125 c 0,-33.901 14.831,-48.023 40.255,-48.023 12.007,0 29.662,11.298 41.668,23.658 v -20.127 H 0 Z" /></g><path
           id="path40"
           style="fill:#2b2b2a;fill-opacity:1;fill-rule:nonzero;stroke:none"
           d="m 754.147,338.323 h 25.424 v 254.946 h -25.424 z" /><g
           transform="translate(808.8452,500.7532)"
           id="g42"><path
             id="path44"
             style="fill:#2b2b2a;fill-opacity:1;fill-rule:nonzero;stroke:none"
             d="m 0,0 h 24.716 v -126.413 c 0,-28.25 11.301,-39.549 35.313,-39.549 10.593,0 16.95,1.413 24.01,3.532 v 19.068 c -4.237,-1.413 -10.592,-3.532 -15.535,-3.532 -12.712,0 -18.363,7.769 -18.363,18.363 V 0 H 84.039 V 21.187 H 50.141 V 82.628 H 24.716 V 21.187 L 0,21.187 Z" /></g><g
           transform="translate(999.4595,405.413)"
           id="g46"><path
             id="path48"
             style="fill:#2b2b2a;fill-opacity:1;fill-rule:evenodd;stroke:none"
             d="m 0,0 c 0,-41.666 16.244,-70.622 61.441,-70.622 45.199,0 61.442,28.956 61.442,70.622 v 55.793 c 0,41.666 -16.243,70.622 -61.442,70.622 C 16.244,126.415 0,97.459 0,55.793 Z m 83.335,-7.061 c 0,-21.893 -7.768,-31.075 -21.894,-31.075 -14.124,0 -21.892,9.182 -21.892,31.075 v 69.916 c 0,21.892 7.768,31.074 21.892,31.074 14.126,0 21.894,-9.182 21.894,-31.074 z" /></g><g
           transform="translate(1197.899,338.3231)"
           id="g50"><path
             id="path52"
             style="fill:#2b2b2a;fill-opacity:1;fill-rule:nonzero;stroke:none"
             d="m 0,0 v 149.013 c 9.181,6.708 16.949,12.006 25.424,12.006 8.475,0 14.125,-4.237 14.125,-13.772 V 0 h 39.548 v 153.603 c 0,24.718 -12.359,39.902 -33.192,39.902 -22.952,0 -31.427,-8.475 -48.024,-22.6 v 19.068 H -39.548 L -39.548,0 Z" /></g><g
           transform="translate(1435.8879,461.206)"
           id="g54"><path
             id="path56"
             style="fill:#2b2b2a;fill-opacity:1;fill-rule:evenodd;stroke:none"
             d="m 0,0 c 0,41.666 -16.244,70.622 -61.442,70.622 -45.198,0 -61.441,-28.956 -61.441,-70.622 v -55.793 c 0,-41.666 16.243,-70.622 61.441,-70.622 44.139,0 60.735,27.543 61.442,67.798 h -39.549 v -4.237 c 0,-21.893 -7.768,-31.075 -21.893,-31.075 -14.124,0 -21.893,9.182 -21.893,31.075 v 27.542 H 0 Z m -83.335,-2.826 v 9.888 c 0,21.892 7.769,31.074 21.893,31.074 14.125,0 21.893,-9.182 21.893,-31.074 v -9.888 z" /></g><path
           id="path58"
           style="fill:#ef8c29;fill-opacity:1;fill-rule:nonzero;stroke:none"
           d="m 939.361,522.435 h 23.674 V 225.379 h -23.674 z" /><path
           id="path60"
           style="fill:#ef8c29;fill-opacity:1;fill-rule:nonzero;stroke:none"
           d="m 1500.635,522.639 h 43.001 V 339.048 h -43.001 z" /><path
           id="path62"
           style="fill:#ef8c29;fill-opacity:1;fill-rule:nonzero;stroke:none"
           d="m 1621.037,522.639 h 30.1 V 339.048 h -30.1 z" /><path
           id="path64"
           style="fill:#ef8c29;fill-opacity:1;fill-rule:nonzero;stroke:none"
           d="m 1704.888,522.639 h 12.899 V 339.048 h -12.899 z" /><g
           transform="translate(769.4991,273.3134)"
           id="g66"><path
             id="path68"
             style="fill:#2b2b2a;fill-opacity:1;fill-rule:nonzero;stroke:none"
             d="m 0,0 c 0,3.911 -0.667,6.719 -1.997,8.426 -1.332,1.704 -3.246,2.559 -5.742,2.559 -2.496,0 -4.412,-0.855 -5.742,-2.559 C -14.813,6.719 -15.478,3.911 -15.478,0 v -24.714 c 0,-3.913 0.665,-6.721 1.997,-8.426 1.33,-1.707 3.246,-2.559 5.742,-2.559 2.496,0 4.41,0.852 5.742,2.559 1.33,1.705 1.997,4.513 1.997,8.426 z m -29.458,-2.496 c 0,3.661 0.374,7.031 1.123,10.11 0.749,3.078 1.998,5.721 3.745,7.926 1.748,2.204 3.994,3.911 6.74,5.118 2.747,1.205 6.117,1.81 10.111,1.81 3.994,0 7.364,-0.605 10.111,-1.81 2.746,-1.207 4.992,-2.914 6.74,-5.118 1.747,-2.205 2.996,-4.848 3.745,-7.926 0.749,-3.079 1.123,-6.449 1.123,-10.11 v -19.722 c 0,-3.663 -0.374,-7.033 -1.123,-10.11 -0.749,-3.08 -1.998,-5.723 -3.745,-7.927 -1.748,-2.206 -3.994,-3.912 -6.74,-5.118 -2.747,-1.205 -6.117,-1.809 -10.111,-1.809 -3.994,0 -7.364,0.604 -10.111,1.809 -2.746,1.206 -4.992,2.912 -6.74,5.118 -1.747,2.204 -2.996,4.847 -3.745,7.927 -0.749,3.077 -1.123,6.447 -1.123,10.11 z" /></g><g
           transform="translate(796.2092,227.3794)"
           id="g70"><path
             id="path72"
             style="fill:#2b2b2a;fill-opacity:1;fill-rule:nonzero;stroke:none"
             d="m 0,0 v 67.154 h 13.231 v -6.74 c 1.498,1.247 2.828,2.371 3.994,3.37 1.165,0.998 2.372,1.829 3.62,2.496 1.248,0.665 2.621,1.186 4.119,1.56 1.498,0.375 3.246,0.562 5.243,0.562 3.744,0 6.635,-1.248 8.675,-3.744 2.038,-2.497 3.058,-5.951 3.058,-10.361 L 41.94,0 H 27.96 v 52.051 c 0,1.663 -0.458,2.89 -1.373,3.681 -0.917,0.791 -2.122,1.187 -3.62,1.187 -1.498,0 -2.955,-0.418 -4.369,-1.249 -1.416,-0.832 -2.954,-1.831 -4.618,-2.995 L 13.98,0 Z" /></g><g
           transform="translate(880.3371,269.8186)"
           id="g74"><path
             id="path76"
             style="fill:#2b2b2a;fill-opacity:1;fill-rule:nonzero;stroke:none"
             d="m 0,0 v 3.495 c 0,3.91 -0.667,6.719 -1.997,8.425 -1.332,1.705 -3.245,2.559 -5.742,2.559 -2.496,0 -4.412,-0.854 -5.742,-2.559 -1.332,-1.706 -1.997,-4.515 -1.997,-8.425 V 0 Z m 13.98,-11.484 h -29.458 v -9.735 c 0,-3.913 0.665,-6.722 1.997,-8.426 1.33,-1.707 3.246,-2.559 5.742,-2.559 2.497,0 4.41,0.852 5.742,2.559 1.33,1.704 1.997,4.513 1.997,8.426 v 1.497 h 13.98 c -0.084,-3.579 -0.521,-6.824 -1.311,-9.736 -0.791,-2.913 -2.059,-5.43 -3.807,-7.552 -1.747,-2.122 -3.974,-3.766 -6.678,-4.93 -2.705,-1.165 -6.012,-1.748 -9.923,-1.748 -3.994,0 -7.364,0.605 -10.111,1.81 -2.746,1.206 -4.992,2.912 -6.74,5.118 -1.747,2.204 -2.996,4.847 -3.745,7.926 -0.749,3.078 -1.123,6.448 -1.123,10.111 V 0.999 c 0,3.661 0.374,7.031 1.123,10.11 0.749,3.078 1.998,5.72 3.745,7.926 1.748,2.204 3.994,3.911 6.74,5.118 2.747,1.205 6.117,1.81 10.111,1.81 3.994,0 7.365,-0.605 10.111,-1.81 2.746,-1.207 4.993,-2.914 6.74,-5.118 1.747,-2.206 2.996,-4.848 3.745,-7.926 C 13.606,8.03 13.98,4.66 13.98,0.999 Z" /></g><g
           transform="translate(1028.9272,275.81)"
           id="g78"><path
             id="path80"
             style="fill:#2b2b2a;fill-opacity:1;fill-rule:nonzero;stroke:none"
             d="m 0,0 c -0.421,1.414 -0.902,2.746 -1.447,3.995 -0.546,1.247 -1.238,2.328 -2.075,3.245 -0.84,0.915 -1.887,1.642 -3.145,2.184 -1.258,0.54 -2.811,0.812 -4.655,0.812 -2.181,0 -3.943,-0.749 -5.283,-2.247 -1.342,-1.498 -2.013,-3.329 -2.013,-5.492 0,-2.165 0.692,-4.057 2.076,-5.68 1.384,-1.623 3.082,-3.142 5.095,-4.556 2.013,-1.416 4.233,-2.83 6.667,-4.244 2.431,-1.416 4.654,-3.017 6.667,-4.805 2.013,-1.791 3.711,-3.891 5.095,-6.304 1.383,-2.415 2.075,-5.285 2.075,-8.613 0,-2.58 -0.44,-4.951 -1.32,-7.114 -0.881,-2.166 -2.119,-4.057 -3.711,-5.68 -1.595,-1.623 -3.481,-2.892 -5.661,-3.807 -2.182,-0.915 -4.572,-1.373 -7.171,-1.373 -5.955,0 -10.525,1.498 -13.711,4.494 -3.188,2.995 -5.579,7.239 -7.171,12.731 l 8.303,1.748 c 0.503,-1.416 1.089,-2.808 1.761,-4.181 0.67,-1.374 1.488,-2.602 2.453,-3.683 0.963,-1.082 2.076,-1.956 3.334,-2.621 1.257,-0.667 2.724,-0.999 4.403,-0.999 1.258,0 2.452,0.27 3.585,0.811 1.132,0.541 2.138,1.249 3.019,2.123 0.88,0.873 1.572,1.913 2.075,3.12 0.503,1.206 0.755,2.475 0.755,3.807 0,2.496 -0.692,4.638 -2.076,6.428 -1.383,1.789 -3.081,3.412 -5.094,4.869 -2.013,1.454 -4.236,2.89 -6.667,4.306 -2.434,1.414 -4.655,2.974 -6.667,4.681 -2.013,1.704 -3.711,3.682 -5.095,5.929 -1.384,2.247 -2.076,4.95 -2.076,8.113 0,2.079 0.419,4.076 1.258,5.992 0.837,1.913 2.013,3.598 3.522,5.055 1.51,1.455 3.291,2.6 5.346,3.433 2.055,0.83 4.341,1.248 6.857,1.248 5.031,0 9.057,-1.354 12.076,-4.057 C 4.403,10.963 6.457,7.156 7.548,2.247 Z" /></g><g
           transform="translate(1045.9086,292.2865)"
           id="g82"><path
             id="path84"
             style="fill:#2b2b2a;fill-opacity:1;fill-rule:nonzero;stroke:none"
             d="m 0,0 h 8.806 v 21.719 h 9.057 V 0 H 29.939 V -7.489 H 17.863 v -45.435 c 0,-1.915 0.523,-3.476 1.572,-4.681 1.048,-1.207 2.705,-1.81 4.969,-1.81 0.922,0 1.888,0.144 2.894,0.437 1.006,0.29 1.887,0.561 2.641,0.811 v -6.74 c -1.258,-0.415 -2.516,-0.728 -3.773,-0.937 -1.259,-0.206 -2.853,-0.312 -4.781,-0.312 -4.277,0 -7.443,1.083 -9.497,3.246 -2.056,2.163 -3.082,5.742 -3.082,10.734 v 44.687 l -8.806,0 z" /></g><g
           transform="translate(1116.7316,265.8243)"
           id="g86"><path
             id="path88"
             style="fill:#2b2b2a;fill-opacity:1;fill-rule:nonzero;stroke:none"
             d="m 0,0 c -0.169,6.99 -1.006,12.108 -2.516,15.353 -1.509,3.245 -4.32,4.868 -8.428,4.868 -1.679,0 -3.167,-0.333 -4.466,-0.999 -1.301,-0.666 -2.434,-1.769 -3.397,-3.307 -0.965,-1.541 -1.72,-3.62 -2.264,-6.241 C -21.617,7.052 -21.888,3.826 -21.888,0 Z m -21.888,-7.489 v -3.62 c 0,-3.994 0.229,-7.324 0.691,-9.986 0.46,-2.664 1.195,-4.827 2.202,-6.491 1.006,-1.665 2.264,-2.851 3.774,-3.557 1.509,-0.708 3.353,-1.061 5.535,-1.061 1.761,0 3.249,0.353 4.465,1.061 1.215,0.706 2.265,1.642 3.145,2.808 0.881,1.165 1.592,2.475 2.139,3.932 0.544,1.455 0.943,2.934 1.195,4.431 l 8.554,-0.998 c -0.336,-2.415 -1.05,-4.744 -2.139,-6.99 -1.091,-2.247 -2.516,-4.244 -4.277,-5.992 -1.761,-1.747 -3.836,-3.142 -6.227,-4.181 -2.39,-1.04 -5.094,-1.56 -8.113,-1.56 -6.878,0 -11.931,2.683 -15.159,8.05 -3.229,5.368 -4.843,13.918 -4.843,25.652 0,11.733 1.614,20.283 4.843,25.65 3.228,5.367 8.281,8.052 15.159,8.052 3.437,0 6.415,-0.73 8.931,-2.185 C 0.503,24.069 2.579,21.988 4.214,19.285 5.849,16.58 7.064,13.313 7.862,9.486 8.658,5.658 9.057,1.414 9.057,-3.245 v -4.244 z" /></g><g
           transform="translate(1150.6951,239.3622)"
           id="g90"><path
             id="path92"
             style="fill:#2b2b2a;fill-opacity:1;fill-rule:nonzero;stroke:none"
             d="m 0,0 c 1.34,-1.332 2.809,-2.621 4.403,-3.869 1.592,-1.249 3.396,-1.873 5.409,-1.873 1.928,0 3.648,0.437 5.158,1.311 1.509,0.873 2.767,2.309 3.774,4.306 1.006,1.997 1.78,4.681 2.327,8.051 0.544,3.371 0.817,7.552 0.817,12.545 0,4.993 -0.294,9.174 -0.88,12.544 -0.588,3.37 -1.406,6.054 -2.453,8.051 -1.05,1.997 -2.349,3.433 -3.9,4.307 -1.553,0.873 -3.251,1.31 -5.094,1.31 -1.428,0 -3.02,-0.561 -4.781,-1.685 C 3.019,43.875 1.425,42.355 0,40.442 Z m -1.51,46.683 h 0.252 c 1.51,2.329 3.375,4.16 5.598,5.493 2.221,1.33 4.8,1.997 7.736,1.997 2.599,0 5.032,-0.584 7.297,-1.748 2.264,-1.166 4.255,-3.08 5.975,-5.742 1.718,-2.664 3.082,-6.138 4.088,-10.422 1.007,-4.287 1.51,-9.549 1.51,-15.79 0,-6.242 -0.503,-11.506 -1.51,-15.791 -1.006,-4.286 -2.37,-7.76 -4.088,-10.422 -1.72,-2.664 -3.711,-4.577 -5.975,-5.742 -2.265,-1.164 -4.698,-1.747 -7.297,-1.747 -2.433,0 -4.676,0.624 -6.73,1.872 C 3.29,-10.11 1.51,-8.738 0,-7.24 v -25.963 h -9.057 v 86.127 h 7.547 z" /></g><g
           transform="translate(1255.4791,262.3296)"
           id="g94"><path
             id="path96"
             style="fill:#2b2b2a;fill-opacity:1;fill-rule:nonzero;stroke:none"
             d="m 0,0 c -2.097,-0.667 -4.403,-1.519 -6.919,-2.559 -2.516,-1.042 -4.886,-2.331 -7.107,-3.87 -2.224,-1.541 -4.069,-3.329 -5.535,-5.367 -1.469,-2.04 -2.202,-4.349 -2.202,-6.928 0,-3.079 0.733,-5.513 2.202,-7.302 1.466,-1.79 3.836,-2.683 7.107,-2.683 2.431,0 4.696,0.706 6.793,2.122 2.095,1.414 3.982,2.952 5.661,4.618 z m -29.059,12.232 c 0.419,2.579 1.132,5.012 2.139,7.303 1.006,2.287 2.305,4.306 3.899,6.053 1.592,1.748 3.479,3.121 5.661,4.119 2.18,0.999 4.737,1.498 7.674,1.498 6.038,0 10.671,-1.644 13.9,-4.93 3.227,-3.289 4.843,-7.802 4.843,-13.544 v -36.197 c 0,-2.914 0.146,-5.368 0.44,-7.365 0.293,-1.997 0.692,-3.371 1.195,-4.119 H 1.258 l -1.132,5.492 c -0.924,-0.917 -1.972,-1.769 -3.145,-2.559 -1.175,-0.792 -2.39,-1.498 -3.648,-2.122 -1.258,-0.624 -2.516,-1.124 -3.774,-1.498 -1.258,-0.375 -2.39,-0.562 -3.396,-0.562 -5.117,0 -9.227,1.498 -12.328,4.494 -3.104,2.996 -4.655,7.072 -4.655,12.233 0,3.994 0.985,7.508 2.956,10.547 1.969,3.037 4.485,5.658 7.548,7.864 3.06,2.204 6.394,3.994 10.001,5.367 C -6.71,5.679 -3.271,6.74 0,7.489 v 4.619 c 0,3.576 -0.839,6.406 -2.516,8.487 -1.678,2.079 -3.984,3.121 -6.919,3.121 -1.761,0 -3.292,-0.396 -4.591,-1.186 -1.302,-0.792 -2.412,-1.79 -3.334,-2.995 -0.924,-1.208 -1.657,-2.56 -2.201,-4.057 -0.547,-1.498 -0.944,-2.996 -1.195,-4.494 z" /></g><g
           transform="translate(1285.0392,317.5006)"
           id="g98"><path
             id="path100"
             style="fill:#2b2b2a;fill-opacity:1;fill-rule:nonzero;stroke:none"
             d="m 0,0 h 9.057 v -32.329 c 1.928,2.163 4.256,4.097 6.982,5.804 2.724,1.705 5.177,2.559 7.359,2.559 4.529,0 8.051,-1.332 10.567,-3.994 2.516,-2.664 3.774,-6.99 3.774,-12.982 v -49.179 h -9.058 v 47.931 c 0,3.745 -0.587,6.469 -1.761,8.176 -1.175,1.704 -2.977,2.559 -5.409,2.559 -2.182,0 -4.299,-0.708 -6.353,-2.122 -2.056,-1.416 -4.088,-3.37 -6.101,-5.867 V -90.121 H 0 Z" /></g><g
           transform="translate(1368.6913,265.8243)"
           id="g102"><path
             id="path104"
             style="fill:#2b2b2a;fill-opacity:1;fill-rule:nonzero;stroke:none"
             d="m 0,0 c -0.169,6.99 -1.006,12.108 -2.516,15.353 -1.51,3.245 -4.32,4.868 -8.428,4.868 -1.679,0 -3.167,-0.333 -4.466,-0.999 -1.301,-0.666 -2.434,-1.769 -3.397,-3.307 -0.965,-1.541 -1.72,-3.62 -2.264,-6.241 C -21.618,7.052 -21.888,3.826 -21.888,0 Z m -21.888,-7.489 v -3.62 c 0,-3.994 0.229,-7.324 0.691,-9.986 0.46,-2.664 1.195,-4.827 2.202,-6.491 1.006,-1.665 2.264,-2.851 3.774,-3.557 1.509,-0.708 3.353,-1.061 5.535,-1.061 1.761,0 3.249,0.353 4.465,1.061 1.215,0.706 2.265,1.642 3.145,2.808 0.881,1.165 1.592,2.475 2.139,3.932 0.544,1.455 0.943,2.934 1.195,4.431 l 8.554,-0.998 c -0.336,-2.415 -1.05,-4.744 -2.139,-6.99 -1.091,-2.247 -2.516,-4.244 -4.277,-5.992 -1.761,-1.747 -3.836,-3.142 -6.227,-4.181 -2.39,-1.04 -5.094,-1.56 -8.113,-1.56 -6.878,0 -11.931,2.683 -15.159,8.05 -3.229,5.368 -4.843,13.918 -4.843,25.652 0,11.733 1.614,20.283 4.843,25.65 3.228,5.367 8.281,8.052 15.159,8.052 3.437,0 6.415,-0.73 8.931,-2.185 C 0.503,24.069 2.579,21.988 4.214,19.285 5.849,16.58 7.064,13.313 7.862,9.486 8.658,5.658 9.057,1.414 9.057,-3.245 v -4.244 z" /></g><g
           transform="translate(1420.6442,262.3296)"
           id="g106"><path
             id="path108"
             style="fill:#2b2b2a;fill-opacity:1;fill-rule:nonzero;stroke:none"
             d="m 0,0 c -2.097,-0.667 -4.403,-1.519 -6.919,-2.559 -2.516,-1.042 -4.887,-2.331 -7.107,-3.87 -2.224,-1.541 -4.069,-3.329 -5.535,-5.367 -1.469,-2.04 -2.202,-4.349 -2.202,-6.928 0,-3.079 0.733,-5.513 2.202,-7.302 1.466,-1.79 3.836,-2.683 7.107,-2.683 2.431,0 4.696,0.706 6.793,2.122 2.095,1.414 3.982,2.952 5.661,4.618 z m -29.059,12.232 c 0.419,2.579 1.132,5.012 2.139,7.303 1.006,2.287 2.305,4.306 3.899,6.053 1.592,1.748 3.479,3.121 5.661,4.119 2.18,0.999 4.737,1.498 7.673,1.498 6.039,0 10.672,-1.644 13.901,-4.93 3.227,-3.289 4.843,-7.802 4.843,-13.544 v -36.197 c 0,-2.914 0.146,-5.368 0.44,-7.365 0.293,-1.997 0.692,-3.371 1.195,-4.119 H 1.258 l -1.132,5.492 c -0.924,-0.917 -1.972,-1.769 -3.145,-2.559 -1.176,-0.792 -2.39,-1.498 -3.648,-2.122 -1.258,-0.624 -2.516,-1.124 -3.774,-1.498 -1.258,-0.375 -2.39,-0.562 -3.397,-0.562 -5.116,0 -9.226,1.498 -12.327,4.494 -3.104,2.996 -4.655,7.072 -4.655,12.233 0,3.994 0.985,7.508 2.956,10.547 1.969,3.037 4.485,5.658 7.548,7.864 3.06,2.204 6.394,3.994 10.001,5.367 C -6.71,5.679 -3.271,6.74 0,7.489 v 4.619 c 0,3.576 -0.839,6.406 -2.516,8.487 -1.679,2.079 -3.984,3.121 -6.919,3.121 -1.761,0 -3.292,-0.396 -4.591,-1.186 -1.302,-0.792 -2.412,-1.79 -3.334,-2.995 -0.924,-1.208 -1.657,-2.56 -2.201,-4.057 -0.547,-1.498 -0.944,-2.996 -1.195,-4.494 z" /></g><g
           transform="translate(1478.1304,280.3037)"
           id="g110"><path
             id="path112"
             style="fill:#2b2b2a;fill-opacity:1;fill-rule:nonzero;stroke:none"
             d="m 0,0 c -1.343,1.33 -2.811,2.621 -4.403,3.869 -1.594,1.249 -3.396,1.873 -5.409,1.873 -1.93,0 -3.648,-0.437 -5.157,-1.311 -1.51,-0.873 -2.768,-2.309 -3.774,-4.306 -1.007,-1.997 -1.783,-4.681 -2.328,-8.051 -0.546,-3.371 -0.817,-7.552 -0.817,-12.545 0,-4.993 0.293,-9.174 0.88,-12.544 0.586,-3.371 1.404,-6.054 2.453,-8.051 1.048,-1.997 2.328,-3.433 3.837,-4.307 1.51,-0.874 3.227,-1.31 5.158,-1.31 1.425,0 3.019,0.561 4.78,1.685 1.761,1.123 3.353,2.64 4.78,4.555 z M 1.635,-46.683 H 1.384 c -1.594,-2.331 -3.503,-4.163 -5.724,-5.493 -2.223,-1.33 -4.802,-1.997 -7.736,-1.997 -2.601,0 -5.032,0.583 -7.296,1.748 -2.265,1.164 -4.258,3.077 -5.976,5.742 -1.72,2.662 -3.082,6.135 -4.088,10.422 -1.007,4.285 -1.51,9.549 -1.51,15.79 0,6.241 0.503,11.503 1.51,15.79 1.006,4.285 2.368,7.758 4.088,10.423 1.718,2.662 3.711,4.575 5.976,5.742 2.264,1.164 4.695,1.747 7.296,1.747 2.431,0 4.674,-0.624 6.73,-1.872 C -3.292,10.11 -1.51,8.737 0,7.239 v 29.958 h 9.057 v -72.646 c 0,-4.244 0.126,-7.739 0.378,-10.486 0.251,-2.746 0.629,-5.076 1.132,-6.989 H 2.013 Z" /></g><path
           id="path114"
           style="fill:#2b2b2a;fill-opacity:1;fill-rule:nonzero;stroke:none"
           d="m 1517.754,227.379 h -10.567 v 11.733 h 10.567 z" /></g></g></g></svg>