<?xml version="1.0" encoding="UTF-8" standalone="no"?>
<!-- Created with Inkscape (http://www.inkscape.org/) -->
<svg
   xmlns:svg="http://www.w3.org/2000/svg"
   xmlns="http://www.w3.org/2000/svg"
   version="1.0"
   width="200"
   height="75"
   id="svg2211">
  <defs
     id="defs2214" />
  <path
     d="M 20.657044,35.072346 L 21.946107,35.072346 C 23.535939,35.07236 24.62627,34.900485 25.217103,34.556721 C 25.80791,34.202244 26.10332,33.595311 26.103333,32.73592 C 26.10332,31.844336 25.824023,31.22129 25.265443,30.866779 C 24.717579,30.501564 23.643361,30.318947 22.042787,30.318928 L 20.657044,30.318928 L 20.657044,35.072346 M 14.69513,49.23592 L 14.69513,25.646076 L 21.156556,25.646076 C 23.820607,25.6461 25.679004,25.732037 26.731751,25.903889 C 27.795212,26.075787 28.708297,26.371197 29.471009,26.790119 C 30.341108,27.27354 31.001752,27.923441 31.452943,28.739826 C 31.914837,29.54551 32.145794,30.480079 32.145814,31.543537 C 32.145794,32.886327 31.802044,33.955174 31.114564,34.75008 C 30.437788,35.534273 29.352828,36.130464 27.859681,36.538654 C 29.535445,36.667573 30.845991,37.258393 31.791322,38.311115 C 32.736614,39.353117 33.209269,40.7496 33.209291,42.500568 C 33.209269,43.75741 32.940715,44.863854 32.403626,45.819904 C 31.87724,46.775961 31.119916,47.517172 30.131654,48.043537 C 29.325973,48.473225 28.332321,48.779377 27.150697,48.961994 C 25.969042,49.144611 24.035451,49.23592 21.349916,49.23592 L 14.69513,49.23592 M 20.657044,44.418049 L 22.912904,44.418049 C 24.438282,44.418054 25.517871,44.230066 26.151673,43.854084 C 26.785448,43.467371 27.102342,42.828212 27.102357,41.936604 C 27.102342,40.948331 26.812303,40.260831 26.23224,39.874104 C 25.652148,39.476652 24.57793,39.277922 23.009583,39.277912 L 20.657044,39.277912 L 20.657044,44.418049 M 38.107728,41.614338 C 39.063778,42.699305 40.003719,43.51034 40.927552,44.047443 C 41.862115,44.584557 42.791314,44.853112 43.71515,44.853107 C 44.574515,44.853112 45.278127,44.622155 45.82599,44.160236 C 46.384572,43.698328 46.663868,43.112879 46.66388,42.403889 C 46.663868,41.619717 46.422169,41.018155 45.938783,40.599201 C 45.466116,40.169523 44.386527,39.729094 42.700013,39.277912 C 40.390437,38.654876 38.757626,37.843842 37.801576,36.844807 C 36.845519,35.845797 36.367492,34.476169 36.367494,32.73592 C 36.367492,30.480079 37.119444,28.643167 38.623353,27.225178 C 40.137996,25.79649 42.098443,25.082136 44.504701,25.082111 C 45.804494,25.082136 47.034473,25.259381 48.194642,25.61385 C 49.365526,25.957623 50.47197,26.48399 51.513978,27.192951 L 49.499818,31.817463 C 48.769335,31.194434 48.017383,30.727149 47.243958,30.415607 C 46.481251,30.093361 45.723928,29.932228 44.971986,29.932209 C 44.198539,29.932228 43.570121,30.120216 43.086732,30.496174 C 42.603325,30.861427 42.361626,31.334082 42.361634,31.914143 C 42.361626,32.50498 42.571099,32.977635 42.990052,33.332111 C 43.419731,33.686619 44.241507,34.024998 45.455384,34.347248 L 45.745423,34.427814 C 48.366503,35.136813 50.090623,35.915621 50.917787,36.76424 C 51.476363,37.34433 51.900679,38.042572 52.190736,38.858967 C 52.480757,39.66464 52.625776,40.561612 52.625794,41.549885 C 52.625776,44.05282 51.804,46.066978 50.160462,47.592365 C 48.516894,49.107014 46.32549,49.864337 43.586244,49.864338 C 41.942682,49.864337 40.444148,49.585041 39.090638,49.026447 C 37.747862,48.467854 36.453429,47.592367 35.207337,46.399982 L 38.107728,41.614338 M 65.373727,49.23592 L 65.373727,25.646076 L 77.81318,25.646076 L 77.81318,28.208088 L 68.177438,28.208088 L 68.177438,34.975666 L 77.81318,34.975666 L 77.81318,37.586018 L 68.177438,37.586018 L 68.177438,46.625568 L 77.81318,46.625568 L 77.81318,49.23592 L 65.373727,49.23592 M 82.582711,49.23592 L 82.582711,24.711506 L 99.840035,43.564045 L 99.840035,25.646076 L 102.51484,25.646076 L 102.51484,50.154377 L 85.257516,31.511311 L 85.257516,49.23592 L 82.582711,49.23592 M 108.1706,49.23592 L 108.1706,25.646076 L 120.61005,25.646076 L 120.61005,28.208088 L 110.97431,28.208088 L 110.97431,34.975666 L 120.61005,34.975666 L 120.61005,37.586018 L 110.97431,37.586018 L 110.97431,46.625568 L 120.61005,46.625568 L 120.61005,49.23592 L 108.1706,49.23592 M 125.37959,49.23592 L 125.37959,25.646076 L 130.92255,25.646076 C 132.50165,25.6461 133.65643,25.737408 134.38691,25.920002 C 135.12811,26.0919 135.77801,26.392681 136.33662,26.822346 C 137.03485,27.370219 137.57733,28.106058 137.96406,29.029865 C 138.35076,29.94297 138.54412,30.958106 138.54414,32.075275 C 138.54412,34.008884 138.00164,35.480563 136.9167,36.490314 C 135.84246,37.48935 134.26336,37.988861 132.17939,37.98885 L 131.67988,37.98885 L 140.6872,49.23592 L 137.12617,49.23592 L 128.52168,37.98885 L 128.11884,37.98885 L 128.11884,49.23592 L 125.37959,49.23592 M 128.11884,28.014729 L 128.11884,35.910236 L 130.26191,35.910236 C 132.45331,35.91025 133.91961,35.630953 134.66084,35.072346 C 135.40203,34.503025 135.77264,33.514744 135.77265,32.107502 C 135.77264,30.592872 135.39129,29.534768 134.62861,28.933186 C 133.8659,28.320902 132.41034,28.01475 130.26191,28.014729 L 128.11884,28.014729 M 156.01093,37.054279 L 165.74335,37.054279 L 165.74335,37.84383 C 165.74332,41.560635 164.69059,44.493249 162.58514,46.641682 C 160.47966,48.79012 157.60612,49.864337 153.96454,49.864338 C 152.85808,49.864337 151.79998,49.746173 150.79022,49.509846 C 149.79119,49.273518 148.86736,48.929768 148.01874,48.478596 C 146.08514,47.415121 144.59198,45.948814 143.53925,44.07967 C 142.48651,42.199794 141.96014,40.067472 141.96014,37.682697 C 141.96014,35.716891 142.27167,33.944431 142.89472,32.365314 C 143.5285,30.775489 144.47918,29.379006 145.74677,28.175861 C 146.81024,27.166118 148.04559,26.403423 149.45282,25.887775 C 150.86004,25.372174 152.41765,25.114362 154.12567,25.114338 C 156.39226,25.114362 158.35808,25.527936 160.02313,26.355061 C 161.68815,27.171489 163.06852,28.406839 164.16425,30.061115 L 161.81171,31.946369 C 160.96305,30.517677 159.90495,29.44883 158.63739,28.739826 C 157.3698,28.020121 155.89812,27.660258 154.22235,27.660236 C 151.48308,27.660258 149.25945,28.584085 147.55145,30.431721 C 145.84344,32.279394 144.98944,34.696384 144.98944,37.682697 C 144.98944,40.497159 145.85418,42.806727 147.58368,44.611408 C 149.32391,46.416099 151.53679,47.318441 154.22235,47.318439 C 156.58562,47.318441 158.55144,46.604087 160.11981,45.175373 C 161.69889,43.735925 162.57438,41.866787 162.74628,39.567951 L 156.01093,39.567951 L 156.01093,37.054279 M 174.52509,49.23592 L 174.52509,38.440022 L 166.5329,25.646076 L 169.77167,25.646076 L 175.94306,35.87801 L 182.08222,25.646076 L 185.30487,25.646076 L 177.3288,38.440022 L 177.3288,49.23592 L 174.52509,49.23592"
     style="font-size:33px;font-style:normal;font-variant:normal;font-weight:normal;font-stretch:normal;text-align:start;line-height:125%;writing-mode:lr-tb;text-anchor:start;fill:#024083;fill-opacity:1;stroke:none;stroke-width:1px;stroke-linecap:butt;stroke-linejoin:miter;stroke-opacity:1;font-family:Futura Bk BT"
     id="text2220" />
  <rect
     width="1.8967136"
     height="54.925663"
     x="57.307426"
     y="10.037169"
     style="fill:#e8585d;fill-opacity:1"
     id="rect2170" />
</svg>
