<?xml version="1.0" encoding="UTF-8"?><svg id="Ebene_1" xmlns="http://www.w3.org/2000/svg" viewBox="0 0 2000 2000"><defs><style>.cls-1{fill:blue;fill-rule:evenodd;}</style></defs><path class="cls-1" d="M687.29,236.45H212.42v1527.1l317.06-317.06V453.86h7.11c80.31,0,153.24,54.18,153.24,105.18l-.03,532.17c179.66-28.5,319.5-123.94,319.5-423.42,0-338.46-135.21-431.33-322.02-431.33Z"/><path class="cls-1" d="M1787.58,236.45h-660.59l-.4,212.41h401.07l-277.74,277.15v198.16s93.83-29.1,181.33-29.89c81.56-.99,157.38,22.37,147.09,116.2-13.26,120.95-73.64,153.89-173.81,186.16-72.26,23.36-165.5,30.88-276.75,32.66l-.2,215.43s378.31,15.98,512.22-95.92c29.23-22.6,58.67-55.69,83.33-96.27,23.9-39.32,39.44-79.35,46.4-114.88,3.71-14.08,6.24-27.65,7.63-40.51.69-4.03,1.51-7.98,2.11-12.06,20.98-143.92-22.37-273.98-99.97-321.69h-.2c-17.22-9.11-37.21-15.64-60.18-18.81-26.53-3.56-57.41-2.77-92.85,3.76l261.51-261.9v-250.03Z"/></svg>