<svg width="681" height="173" xmlns="http://www.w3.org/2000/svg"><g fill="none" fill-rule="evenodd"><path d="M631.377 43.069h9.29l15.104 23.368 15.11-23.368h9.29V92.49h-8.653V57.048l-15.674 23.299h-.284l-15.53-23.159v35.303h-8.653V43.069zm-43.353 50.2c-3.214 0-6.123-.46-8.722-1.378-2.602-.918-4.822-2.296-6.665-4.13-1.844-1.836-3.266-4.106-4.258-6.814-.991-2.705-1.489-5.849-1.489-9.424V43.07h8.652v28.099c0 4.613 1.126 8.118 3.358 10.522 2.233 2.4 5.32 3.6 9.265 3.6 3.903 0 6.965-1.156 9.197-3.46 2.232-2.306 3.358-5.741 3.358-10.307V43.07h8.649v28.029c0 3.67-.507 6.896-1.521 9.674-1.018 2.775-2.45 5.093-4.293 6.953-1.843 1.858-4.079 3.248-6.7 4.166-2.625.917-5.568 1.378-8.83 1.378zm-68.811-50.553h8.084l21.842 49.775h-9.22l-5.035-11.932h-23.472l-5.106 11.932h-8.935l21.842-49.775zm12.482 30.147-8.582-19.77-8.508 19.77h17.09zM440.4 43.07h22.235c5.708 0 10.02 1.46 12.95 4.378 1.898 1.894 2.984 4.171 3.256 6.828l.068 1.503c0 1.505-.201 2.836-.603 3.988a11.367 11.367 0 0 1-1.537 3.035 11.265 11.265 0 0 1-2.258 2.296 18.929 18.929 0 0 1-2.637 1.692 25.677 25.677 0 0 1 3.986 1.8c1.193.686 2.232 1.496 3.097 2.439a9.686 9.686 0 0 1 2.009 3.318c.354.955.575 2.026.664 3.217l.044 1.37c0 2.214-.437 4.166-1.314 5.862-.87 1.692-2.102 3.105-3.71 4.235-1.606 1.13-3.545 1.99-5.803 2.578-2.268.588-4.774.883-7.504.883H440.4V43.069zm20.532 20.828c2.822 0 5.08-.553 6.783-1.66 1.409-.921 2.235-2.243 2.47-3.967l.072-1.222c0-1.978-.743-3.518-2.223-4.626-1.49-1.104-3.642-1.657-6.477-1.657h-12.505v13.132h11.88zm2.538 20.898c2.982 0 5.307-.565 7.013-1.696 1.406-.939 2.234-2.273 2.47-4l.072-1.223c0-2.117-.842-3.756-2.51-4.905-1.677-1.156-4.232-1.734-7.67-1.734h-13.793v13.558h14.418zm-86.99-41.726h8.653v20.545h23.829V43.07h8.652V92.49h-8.652V71.663h-23.829V92.49h-8.652V43.069zm-43.776 8.048h-15.745V43.07h40.282v8.048h-15.745v41.374h-8.792V51.117zM273.89 93.34c-3.83 0-7.328-.673-10.495-2.013-3.167-1.343-5.887-3.166-8.154-5.47-2.271-2.31-4.044-5.005-5.32-8.088a25.141 25.141 0 0 1-1.84-7.782l-.077-2.206c0-3.483.641-6.766 1.917-9.849s3.071-5.791 5.39-8.118c2.318-2.33 5.058-4.179 8.224-5.544 3.17-1.365 6.669-2.048 10.499-2.048 3.827 0 7.325.67 10.495 2.013 3.167 1.34 5.884 3.162 8.155 5.47 2.27 2.309 4.044 5.001 5.32 8.084a25.138 25.138 0 0 1 1.836 7.783l.077 2.209c0 3.48-.638 6.766-1.914 9.849a24.923 24.923 0 0 1-5.39 8.118c-2.318 2.33-5.06 4.179-8.227 5.544-3.167 1.365-6.665 2.048-10.496 2.048zm.144-7.98c2.446 0 4.691-.46 6.748-1.377 2.044-.918 3.792-2.165 5.259-3.74 1.454-1.578 2.602-3.426 3.415-5.544a17.991 17.991 0 0 0 1.164-5.003l.077-1.915c0-2.404-.411-4.674-1.24-6.814-.814-2.14-1.975-4-3.451-5.578-1.49-1.578-3.263-2.835-5.33-3.775-2.082-.943-4.34-1.413-6.786-1.413-2.446 0-4.69.457-6.748 1.375-2.044.917-3.795 2.165-5.259 3.743-1.457 1.578-2.602 3.426-3.415 5.544a18.006 18.006 0 0 0-1.163 5.003l-.078 1.915c0 2.4.412 4.67 1.24 6.813.814 2.14 1.972 4 3.452 5.579 1.489 1.575 3.262 2.835 5.329 3.775 2.079.94 4.337 1.413 6.786 1.413zM188.91 43.07h22.126c3.12 0 5.884.435 8.298 1.305 2.411.873 4.42 2.083 6.028 3.635a14.29 14.29 0 0 1 3.049 4.73c.533 1.342.864 2.791.996 4.344l.065 1.73c0 2.023-.293 3.849-.883 5.471-.59 1.623-1.41 3.06-2.45 4.306a14.6 14.6 0 0 1-3.72 3.178c-1.442.873-3.037 1.543-4.788 2.013l13.404 18.71h-10.282l-12.236-17.228h-10.955v17.228h-8.652V43.069zm21.453 24.498c3.132 0 5.626-.74 7.47-2.235 1.59-1.27 2.495-2.94 2.72-5l.057-1.2c0-2.696-.9-4.744-2.708-6.132-1.795-1.4-4.337-2.095-7.612-2.095h-12.728v16.662h12.801zm253.04 44.64h12.948v2.766h-9.899v4.483h8.78v2.76h-8.78v4.654h10.027v2.762h-13.076v-17.424zm25.382 0h2.845l9.354 12.05v-12.05h3.052v17.425h-2.57l-9.632-12.398v12.398h-3.049v-17.424zm36.678 17.727c-1.368 0-2.605-.229-3.724-.686-1.117-.457-2.07-1.086-2.864-1.89a8.516 8.516 0 0 1-1.837-2.84 9.14 9.14 0 0 1-.578-2.3l-.073-1.298c0-1.21.22-2.366.667-3.46a8.884 8.884 0 0 1 1.875-2.877 9.124 9.124 0 0 1 2.87-1.953c1.11-.476 2.325-.72 3.639-.72.765 0 1.467.053 2.092.161.622.108 1.2.264 1.735.46.532.2 1.04.442 1.515.73.472.293.934.633 1.387 1.017l-1.952 2.308c-.331-.28-.68-.54-1.027-.768a5.891 5.891 0 0 0-1.1-.585 7.272 7.272 0 0 0-1.263-.377 8.16 8.16 0 0 0-1.511-.134c-.8 0-1.544.165-2.24.502a5.92 5.92 0 0 0-1.801 1.333 6.228 6.228 0 0 0-1.2 1.956 6.417 6.417 0 0 0-.387 1.552l-.05.87c0 .893.144 1.728.431 2.493.278.768.68 1.423 1.203 1.969a5.66 5.66 0 0 0 1.872 1.295c.727.32 1.534.476 2.436.476.83 0 1.608-.124 2.328-.362a6.556 6.556 0 0 0 1.882-.965v-3.276h-4.474V119.9h7.453v7.315c-.434.365-.913.72-1.439 1.044a10.812 10.812 0 0 1-3.664 1.461c-.695.14-1.435.213-2.2.213zm20.105-17.726h3.052v17.42h-3.052v-17.42zm16.376 0h2.85l9.358 12.049v-12.05h3.048v17.425h-2.573l-9.631-12.398v12.398h-3.052v-17.424zm28.383 0h12.95v2.765h-9.898v4.483h8.78v2.76h-8.78v4.654h10.023v2.762h-13.075v-17.424zm25.382 0h12.95v2.765h-9.898v4.483h8.773v2.76h-8.773v4.654h10.023v2.762H615.71v-17.424zm32.947 8.636c1.1 0 1.98-.258 2.627-.788.493-.39.8-.892.922-1.495l.06-.69c0-.952-.321-1.676-.956-2.161-.628-.492-1.53-.737-2.682-.737h-4.49v5.87h4.519zm-7.571-8.636h7.803c1.1 0 2.077.152 2.925.457.851.308 1.56.736 2.124 1.283a4.93 4.93 0 0 1 1.075 1.67c.165.42.277.872.334 1.351l.042.792c0 .71-.105 1.355-.313 1.927a5.055 5.055 0 0 1-.86 1.52c-.364.436-.804.81-1.315 1.118a6.438 6.438 0 0 1-1.684.712l4.724 6.594h-3.626l-4.312-6.074h-3.865v6.074h-3.052v-17.424zm32.857 17.675c-1.346 0-2.64-.229-3.875-.686-1.23-.457-2.372-1.159-3.425-2.105l1.85-2.188c.848.73 1.71 1.29 2.574 1.68.87.39 1.852.584 2.953.584.95 0 1.706-.2 2.264-.593.418-.3.68-.674.783-1.122l.052-.526c0-.315-.054-.59-.162-.829-.109-.248-.306-.473-.6-.686-.296-.222-.692-.416-1.205-.6l-.562-.181-1.431-.368a19.199 19.199 0 0 1-2.494-.73c-.721-.277-1.34-.607-1.828-.997a3.984 3.984 0 0 1-1.135-1.435 4.31 4.31 0 0 1-.343-1.28l-.043-.81c0-.746.153-1.431.45-2.054.3-.619.705-1.155 1.228-1.587.52-.445 1.144-.785 1.881-1.035.724-.251 1.528-.375 2.395-.375 1.282 0 2.433.187 3.464.562 1.023.365 1.986.911 2.889 1.632l-1.655 2.308c-.798-.575-1.588-1.022-2.373-1.33a6.505 6.505 0 0 0-2.379-.46c-.896 0-1.595.2-2.095.596-.334.265-.557.572-.67.92l-.083.601c0 .334.057.622.172.883.121.254.335.489.641.698.316.207.737.404 1.282.585l1.28.376c.246.065.51.13.79.195.915.232 1.732.489 2.44.772.708.282 1.298.628 1.767 1.035.465.406.825.88 1.065 1.419.165.36.273.756.327 1.194l.04.73c0 .816-.157 1.546-.46 2.194a4.706 4.706 0 0 1-1.279 1.641c-.542.451-1.199.788-1.964 1.023-.766.235-1.607.349-2.526.349zm-476.115.05c-1.282 0-2.462-.234-3.546-.701a8.763 8.763 0 0 1-2.823-1.902c-.797-.803-1.419-1.756-1.878-2.848a8.841 8.841 0 0 1-.602-2.291l-.074-1.271c0-1.242.223-2.41.666-3.496a8.83 8.83 0 0 1 4.736-4.807c1.1-.47 2.319-.708 3.649-.708.803 0 1.53.067 2.187.197a9.298 9.298 0 0 1 1.812.559c.551.244 1.058.53 1.527.863.466.334.91.696 1.327 1.096l-1.977 2.264a9.905 9.905 0 0 0-2.223-1.569c-.788-.397-1.68-.597-2.676-.597a5.5 5.5 0 0 0-2.315.486 5.702 5.702 0 0 0-1.837 1.318 5.888 5.888 0 0 0-1.2 1.955 6.457 6.457 0 0 0-.379 1.56l-.047.879c0 .844.143 1.65.427 2.4.28.756.682 1.416 1.199 1.981a5.652 5.652 0 0 0 1.837 1.334 5.5 5.5 0 0 0 2.315.486c1.065 0 1.98-.207 2.75-.61a11.105 11.105 0 0 0 2.273-1.654l1.977 1.987c-.45.483-.921.908-1.413 1.283a9.795 9.795 0 0 1-1.584.972 8.12 8.12 0 0 1-1.863.622c-.68.14-1.425.213-2.245.213zm27.334-2.812c.86 0 1.652-.162 2.376-.486a5.758 5.758 0 0 0 1.859-1.324 6.323 6.323 0 0 0 1.591-3.51l.048-.881c0-.848-.143-1.648-.434-2.4a5.974 5.974 0 0 0-1.221-1.969 5.827 5.827 0 0 0-1.878-1.327 5.658 5.658 0 0 0-2.395-.502c-.858 0-1.652.162-2.376.486a5.667 5.667 0 0 0-1.853 1.318 6.01 6.01 0 0 0-1.206 1.955 6.217 6.217 0 0 0-.388 1.56l-.049.879c0 .844.144 1.65.437 2.4a5.91 5.91 0 0 0 1.219 1.972 6.066 6.066 0 0 0 1.875 1.33c.736.33 1.534.499 2.395.499zm-.054 2.813c-1.346 0-2.58-.242-3.697-.712-1.116-.473-2.076-1.117-2.873-1.933a8.815 8.815 0 0 1-2.477-5.116l-.074-1.253c0-1.226.223-2.385.67-3.47a8.859 8.859 0 0 1 1.907-2.867 9.181 9.181 0 0 1 2.898-1.953c1.117-.476 2.348-.72 3.7-.72 1.349 0 2.58.237 3.7.707a8.918 8.918 0 0 1 2.876 1.93 8.802 8.802 0 0 1 1.872 2.849c.304.724.504 1.48.604 2.269l.075 1.255a8.852 8.852 0 0 1-.68 3.47 8.669 8.669 0 0 1-1.897 2.864 9.236 9.236 0 0 1-2.899 1.959c-1.116.476-2.353.72-3.705.72zm21.532-17.726h2.848l9.354 12.049v-12.05h3.049v17.425h-2.57l-9.629-12.398v12.398h-3.052v-17.424zm34.532 17.675c-1.349 0-2.644-.229-3.875-.686-1.237-.457-2.375-1.159-3.428-2.105l1.853-2.188c.848.73 1.71 1.29 2.574 1.68.867.39 1.85.584 2.95.584.95 0 1.702-.2 2.264-.593.418-.3.68-.674.786-1.122l.053-.526c0-.315-.058-.59-.163-.829-.109-.248-.31-.473-.603-.686-.293-.222-.695-.416-1.202-.6l-.564-.181-1.426-.368a19.31 19.31 0 0 1-2.5-.73c-.724-.277-1.333-.607-1.831-.997a3.925 3.925 0 0 1-1.126-1.435 4.146 4.146 0 0 1-.344-1.28l-.042-.81c0-.746.147-1.431.444-2.054a4.754 4.754 0 0 1 1.23-1.587c.52-.445 1.146-.785 1.876-1.035.73-.251 1.53-.375 2.401-.375 1.282 0 2.437.187 3.457.562a9.9 9.9 0 0 1 2.893 1.632l-1.649 2.308c-.804-.575-1.591-1.022-2.38-1.33a6.51 6.51 0 0 0-2.372-.46c-.902 0-1.604.2-2.101.596-.336.265-.559.572-.67.92l-.083.601c0 .334.064.622.179.883.114.254.325.489.634.698.313.207.743.404 1.285.585l1.28.376c.247.065.51.13.79.195.912.232 1.732.489 2.443.772.708.282 1.298.628 1.76 1.035.47.406.83.88 1.069 1.419.161.36.27.756.325 1.194l.041.73c0 .816-.156 1.546-.459 2.194a4.678 4.678 0 0 1-1.282 1.641c-.542.451-1.199.788-1.964 1.023-.766.235-1.604.349-2.523.349zm25.653.025c-1.132 0-2.159-.162-3.074-.489a6.178 6.178 0 0 1-2.35-1.454c-.65-.65-1.148-1.45-1.5-2.403-.35-.95-.525-2.064-.525-3.325v-10.03h3.052v9.907c0 1.628.395 2.867 1.183 3.714.79.845 1.872 1.264 3.265 1.264 1.378 0 2.453-.403 3.24-1.22.788-.812 1.187-2.025 1.187-3.635v-10.03h3.049v9.884c0 1.296-.179 2.43-.536 3.407-.36.984-.861 1.797-1.515 2.454a6.068 6.068 0 0 1-2.363 1.467c-.922.327-1.958.49-3.113.49zm20.379-17.7h3.052v14.662h9.2v2.762h-12.252v-17.424zm28.408 2.838h-5.549v-2.838h14.201v2.838h-5.552v14.586h-3.1v-14.586zm20.7-2.838h3.053v17.42h-3.052v-17.42zm16.38 0h2.851l9.35 12.049v-12.05h3.05v17.425h-2.568l-9.63-12.398v12.398h-3.053v-17.424zm36.681 17.726c-1.368 0-2.605-.229-3.725-.686-1.116-.457-2.07-1.086-2.863-1.89a8.667 8.667 0 0 1-1.837-2.84 9.14 9.14 0 0 1-.578-2.3l-.073-1.298c0-1.21.227-2.366.667-3.46a8.945 8.945 0 0 1 1.878-2.877c.804-.82 1.764-1.467 2.87-1.953 1.11-.476 2.319-.72 3.639-.72.765 0 1.46.053 2.089.161a9.807 9.807 0 0 1 1.735.46c.532.2 1.04.442 1.515.73.472.293.937.633 1.387 1.017l-1.952 2.308c-.335-.28-.673-.54-1.024-.768a6.097 6.097 0 0 0-1.1-.585 7.406 7.406 0 0 0-1.26-.377 8.298 8.298 0 0 0-1.514-.134c-.804 0-1.547.165-2.236.502a5.72 5.72 0 0 0-1.799 1.333 5.964 5.964 0 0 0-1.205 1.956 6.5 6.5 0 0 0-.385 1.552l-.049.87c0 .893.14 1.728.421 2.493a5.574 5.574 0 0 0 1.212 1.969 5.57 5.57 0 0 0 1.866 1.295c.724.32 1.534.476 2.436.476.83 0 1.607-.124 2.331-.362a6.556 6.556 0 0 0 1.882-.965v-3.276h-4.474V119.9h7.45v7.315c-.434.365-.913.72-1.436 1.044-.526.334-1.097.623-1.7.874a10.84 10.84 0 0 1-1.967.587 11.22 11.22 0 0 1-2.2.213z" fill="#010403"/><path fill="#17562D" d="M154.41 126.673 132.85 71.72l-65.89 41.923 12.37 6.807-1.142 51.552z"/><path fill="#13391F" d="M73.745 123.657 12.026 89.675 0 129.39l72.67 42.76z"/><path fill="#17562D" d="M68.856 75.835 34.75 49.05 21.129 89.04l39.197 21.58 5.769-3.67z"/><path fill="#95C848" d="M85.35 16.681 72.288 0 60.705 17.736l12.715 12.29zM101.991 37.935 88.804 21.092 76.389 34.976 77.763 58.4z"/><path fill="#4CB348" d="M72.498 62.852 70.875 35.22 57.64 22.428 41.803 46.682l28.855 22.66z"/><path fill="#3D9545" d="M124.063 70.8 108.58 39.575 76.469 66.7l-.77 7.541-2.57 28.966z"/></g></svg>